<svg width="152" height="207" viewBox="0 0 152 207" fill="none" xmlns="http://www.w3.org/2000/svg">
<path d="M60.0333 163.352H67.8253V165.144H64.8173V175H62.9613V165.144H60.0333V163.352ZM90.8494 163.352C92.1828 163.352 93.2174 163.683 93.9534 164.344C94.7001 165.005 95.0734 165.923 95.0734 167.096C95.0734 167.555 95.0041 168.013 94.8654 168.472C94.7268 168.931 94.4974 169.347 94.1774 169.72C93.8681 170.093 93.4628 170.392 92.9614 170.616C92.4601 170.84 91.8414 170.952 91.1054 170.952H89.4254V175H87.5534V163.352H90.8494ZM91.1054 169.16C91.6494 169.16 92.0761 169.043 92.3854 168.808C92.6948 168.573 92.9081 168.296 93.0254 167.976C93.1534 167.656 93.2174 167.373 93.2174 167.128C93.2174 166.883 93.1588 166.605 93.0414 166.296C92.9348 165.976 92.7321 165.704 92.4334 165.48C92.1348 165.256 91.7081 165.144 91.1534 165.144H89.4254V169.16H91.1054Z" fill="#E07A5F"/>
<path d="M12.8667 189.72C12.4507 189.507 12.008 189.325 11.5387 189.176C11.08 189.016 10.632 188.936 10.1947 188.936C9.61869 188.936 9.16002 189.064 8.81869 189.32C8.48802 189.565 8.32269 189.917 8.32269 190.376C8.32269 190.696 8.44002 190.979 8.67469 191.224C8.90935 191.459 9.20802 191.667 9.57069 191.848C9.93335 192.029 10.3174 192.195 10.7227 192.344C11.192 192.515 11.6454 192.728 12.0827 192.984C12.5307 193.24 12.8987 193.592 13.1867 194.04C13.4747 194.477 13.6187 195.064 13.6187 195.8C13.6187 196.408 13.464 196.968 13.1547 197.48C12.8454 197.981 12.4027 198.381 11.8267 198.68C11.2507 198.979 10.552 199.128 9.73069 199.128C9.00535 199.128 8.30135 199.016 7.61869 198.792C6.94669 198.557 6.34935 198.259 5.82669 197.896L6.65869 196.44C7.04269 196.728 7.50135 196.973 8.03469 197.176C8.57869 197.379 9.08535 197.48 9.55469 197.48C9.88535 197.48 10.2107 197.427 10.5307 197.32C10.8614 197.213 11.1334 197.037 11.3467 196.792C11.5707 196.547 11.6827 196.221 11.6827 195.816C11.6827 195.485 11.5867 195.203 11.3947 194.968C11.2027 194.733 10.952 194.531 10.6427 194.36C10.344 194.179 10.0134 194.019 9.65069 193.88C9.28802 193.741 8.91469 193.587 8.53069 193.416C8.15735 193.245 7.81069 193.037 7.49069 192.792C7.17069 192.536 6.90935 192.227 6.70669 191.864C6.50402 191.501 6.40269 191.053 6.40269 190.52C6.40269 189.88 6.55202 189.325 6.85069 188.856C7.14935 188.376 7.56002 188.003 8.08269 187.736C8.61602 187.469 9.22935 187.32 9.92269 187.288C10.744 187.288 11.4427 187.389 12.0187 187.592C12.6054 187.784 13.1227 188.019 13.5707 188.296L12.8667 189.72ZM33.4272 187.352H35.2992V197.208H41.0432V199H33.4272V187.352ZM60.8653 187.352H62.7373V199H60.8653V187.352ZM83.3034 199V187.352H86.6154C87.7781 187.352 88.7648 187.528 89.5754 187.88C90.3861 188.221 91.0421 188.685 91.5434 189.272C92.0448 189.848 92.4074 190.493 92.6314 191.208C92.8661 191.912 92.9834 192.621 92.9834 193.336C92.9834 194.211 92.8288 195 92.5194 195.704C92.2101 196.397 91.7834 196.989 91.2394 197.48C90.7061 197.971 90.0874 198.349 89.3834 198.616C88.6901 198.872 87.9541 199 87.1754 199H83.3034ZM85.1754 197.208H86.8394C87.6608 197.208 88.3861 197.053 89.0154 196.744C89.6554 196.435 90.1568 195.987 90.5194 195.4C90.8821 194.803 91.0634 194.072 91.0634 193.208C91.0634 192.483 90.9408 191.864 90.6954 191.352C90.4608 190.829 90.1461 190.408 89.7514 190.088C89.3674 189.757 88.9461 189.517 88.4874 189.368C88.0288 189.208 87.5754 189.128 87.1274 189.128H85.1754V197.208ZM112.835 187.352H120.563V189.144H114.707V192.248H119.923V194.04H114.707V197.208H120.787V199H112.835V187.352ZM144.007 187.352C144.871 187.352 145.623 187.501 146.263 187.8C146.913 188.088 147.415 188.515 147.767 189.08C148.129 189.635 148.311 190.307 148.311 191.096C148.311 191.757 148.167 192.403 147.879 193.032C147.591 193.661 147.105 194.152 146.423 194.504L149.255 199H147.095L144.471 194.952C144.407 194.952 144.343 194.952 144.279 194.952H142.599V199H140.727V187.352H144.007ZM144.263 193.16C144.817 193.16 145.249 193.053 145.559 192.84C145.868 192.616 146.081 192.349 146.199 192.04C146.327 191.72 146.391 191.427 146.391 191.16C146.391 190.904 146.332 190.621 146.215 190.312C146.097 189.992 145.889 189.72 145.591 189.496C145.292 189.261 144.871 189.144 144.327 189.144H142.599V193.16H144.263Z" fill="#F4F1DE"/>
<path d="M106.428 140.019L75.558 87.9811L44.688 140.019L0.293995 140.019L75.558 9.18905L151.116 140.019L106.428 140.019Z" fill="#F4F1DE"/>
</svg>
