<svg width="217" height="144" viewBox="0 0 217 144" fill="none" xmlns="http://www.w3.org/2000/svg">
<g clip-path="url(#clip0)">
<path d="M93.39 63.615C96.89 72.085 97.804 74.909 109.027 74.909H120.321L92.087 1.5L80.793 30.863L93.39 63.615Z" fill="#F4F1DE"/>
<path d="M45.6088 63.615C42.3938 71.803 42.6088 74.909 46.8408 74.909H63.8518L80.7928 30.863L92.0868 1.5H69.4998L45.6088 63.615Z" fill="#E07A5F"/>
<path opacity="0.2" d="M92.086 1.5L80.793 30.863L82.101 34.263L83.793 29.863L93.395 4.9L92.086 1.5Z" fill="black"/>
<path d="M23.855 0C18.631 0.192 15.509 3.979 15.509 7.53V59.705C15.509 67.434 12.836 72.178 7.338 74.205C5.43321 74.8722 3.4389 75.2491 1.422 75.323L0 75.4V92.575L1.551 92.522C7.2971 92.4259 12.9407 90.9843 18.029 88.313C22.7825 85.7457 26.6828 81.846 29.251 77.093C31.9913 71.8233 33.3536 65.9459 33.211 60.008V0H23.855Z" fill="#F4F1DE"/>
<path d="M169.854 36.035C166.991 34.1969 163.926 32.6966 160.718 31.564C157.254 30.3447 153.947 28.7187 150.866 26.72C148.732 25.253 147.695 23.66 147.695 21.851C147.627 21.0025 147.775 20.1507 148.125 19.3747C148.475 18.5986 149.015 17.9235 149.695 17.412C151.653 16.2209 153.93 15.6606 156.217 15.807C160.635 15.807 165.969 17.514 172.069 20.881L173.441 21.639L180.189 8.022L179.075 7.294C175.662 5.04397 171.977 3.23682 168.109 1.916C163.534 0.529999 158.766 -0.116804 153.987 -1.85799e-06H153.965C146.752 0.347998 140.872 2.586 136.488 6.652C132.054 10.769 129.805 16.252 129.805 22.939C129.661 27.0523 130.816 31.1066 133.105 34.527C135.103 37.4182 137.737 39.8129 140.805 41.527C144.238 43.3541 147.777 44.9723 151.405 46.373C157.821 48.892 161.075 51.728 161.075 54.804C161.165 55.8013 160.966 56.8035 160.501 57.6903C160.036 58.5771 159.325 59.311 158.453 59.804C156.249 61.005 153.768 61.6041 151.259 61.541C148.442 61.4546 145.661 60.8794 143.04 59.841C140.093 58.7826 137.311 57.3127 134.776 55.475L133.415 54.475L125.563 68.339L126.663 69.124C130.449 71.8361 134.656 73.9045 139.116 75.246C143.473 76.5631 147.999 77.2369 152.551 77.246C157.443 77.3641 162.295 76.3411 166.722 74.258C170.507 72.4543 173.699 69.6074 175.922 66.052C177.995 62.6664 179.085 58.7701 179.068 54.8C179.207 50.7831 178.302 46.7988 176.439 43.237C174.842 40.3514 172.585 37.8837 169.854 36.035V36.035Z" fill="#F4F1DE"/>
</g>
<path d="M56.126 98.902C55.7067 98.6867 55.2477 98.4997 54.749 98.341C54.2503 98.1823 53.7687 98.103 53.304 98.103C52.6353 98.103 52.1027 98.256 51.706 98.562C51.3207 98.868 51.128 99.2817 51.128 99.803C51.128 100.177 51.2527 100.494 51.502 100.755C51.7627 101.016 52.0913 101.248 52.488 101.452C52.896 101.645 53.3267 101.826 53.78 101.996C54.29 102.189 54.783 102.421 55.259 102.693C55.735 102.965 56.126 103.333 56.432 103.798C56.7493 104.251 56.908 104.863 56.908 105.634C56.908 106.291 56.7437 106.886 56.415 107.419C56.0863 107.94 55.6217 108.36 55.021 108.677C54.4203 108.983 53.7063 109.136 52.879 109.136C52.063 109.136 51.3037 109.006 50.601 108.745C49.9097 108.484 49.3203 108.184 48.833 107.844L49.564 106.535C49.9607 106.841 50.448 107.107 51.026 107.334C51.6153 107.561 52.1763 107.674 52.709 107.674C53.1057 107.674 53.491 107.606 53.865 107.47C54.2503 107.334 54.5677 107.119 54.817 106.824C55.0663 106.518 55.191 106.127 55.191 105.651C55.191 105.243 55.0777 104.897 54.851 104.614C54.6243 104.331 54.3297 104.093 53.967 103.9C53.6157 103.696 53.2303 103.515 52.811 103.356C52.4257 103.22 52.0347 103.061 51.638 102.88C51.2413 102.699 50.873 102.483 50.533 102.234C50.2043 101.973 49.938 101.656 49.734 101.282C49.53 100.908 49.428 100.455 49.428 99.922C49.428 99.276 49.581 98.715 49.887 98.239C50.2043 97.7517 50.635 97.372 51.179 97.1C51.723 96.8167 52.352 96.6637 53.066 96.641C53.848 96.641 54.5393 96.7373 55.14 96.93C55.752 97.1227 56.2903 97.355 56.755 97.627L56.126 98.902ZM70.1175 96.709H71.7665V107.402H78.0225V109H70.1175V96.709ZM91.1477 96.709H92.7967V109H91.1477V96.709ZM106.782 109V96.709H110.148C111.361 96.709 112.392 96.896 113.242 97.27C114.092 97.6327 114.778 98.12 115.299 98.732C115.832 99.344 116.217 100.024 116.455 100.772C116.705 101.509 116.829 102.251 116.829 102.999C116.829 103.917 116.665 104.75 116.336 105.498C116.008 106.235 115.56 106.864 114.993 107.385C114.427 107.906 113.775 108.309 113.038 108.592C112.313 108.864 111.548 109 110.743 109H106.782ZM108.431 107.402H110.42C111.316 107.402 112.115 107.226 112.817 106.875C113.531 106.524 114.092 106.014 114.5 105.345C114.908 104.665 115.112 103.843 115.112 102.88C115.112 101.883 114.897 101.044 114.466 100.364C114.047 99.684 113.486 99.1683 112.783 98.817C112.092 98.4657 111.355 98.29 110.573 98.29H108.431V107.402ZM130.054 96.709H138.044V98.29H131.703V102.03H137.364V103.611H131.703V107.402H138.282V109H130.054V96.709ZM154.896 96.709C155.712 96.709 156.449 96.8563 157.106 97.151C157.764 97.4343 158.285 97.865 158.67 98.443C159.056 99.0097 159.248 99.701 159.248 100.517C159.248 101.22 159.09 101.9 158.772 102.557C158.466 103.214 157.945 103.713 157.208 104.053L160.302 109H158.381L155.474 104.461C155.35 104.472 155.219 104.478 155.083 104.478H153.264V109H151.615V96.709H154.896ZM155.049 102.88C155.707 102.88 156.211 102.761 156.562 102.523C156.925 102.274 157.18 101.973 157.327 101.622C157.475 101.259 157.548 100.914 157.548 100.585C157.548 100.256 157.469 99.9163 157.31 99.565C157.152 99.2137 156.897 98.9133 156.545 98.664C156.205 98.4147 155.746 98.29 155.168 98.29H153.264V102.88H155.049Z" fill="#E07A5F"/>
<defs>
<clipPath id="clip0">
<rect width="180.193" height="92.575" fill="white"/>
</clipPath>
</defs>
</svg>
